<svg width="40" height="40" viewBox="0 0 40 40" fill="none" xmlns="http://www.w3.org/2000/svg">
<path d="M26.6666 36.6667V30.2167C26.7292 29.4219 26.6218 28.623 26.3517 27.873C26.0815 27.123 25.6549 26.439 25.1 25.8667C30.3333 25.2833 35.8333 23.3 35.8333 14.2C35.8329 11.873 34.9378 9.63533 33.3333 7.95C34.0931 5.91418 34.0394 3.66392 33.1833 1.66667C33.1833 1.66667 31.2166 1.08333 26.6666 4.13334C22.8467 3.09804 18.82 3.09804 15 4.13334C10.45 1.08333 8.48331 1.66667 8.48331 1.66667C7.62727 3.66392 7.57355 5.91418 8.33331 7.95C6.71686 9.64783 5.82085 11.9058 5.83331 14.25C5.83331 23.2833 11.3333 25.2667 16.5666 25.9167C16.0183 26.4833 15.5954 27.159 15.3255 27.8999C15.0556 28.6407 14.9447 29.4301 15 30.2167V36.6667M15 31.6667C6.66665 34.1667 6.66665 27.5 3.33331 26.6667L15 31.6667Z" stroke="#B1B3A3" stroke-width="2" stroke-linecap="round" stroke-linejoin="round"/>
</svg>
