<svg width="100%" height="100%" viewBox="0 0 232 235" fill="none" xmlns="http://www.w3.org/2000/svg">
<rect width="232" height="235" rx="50" fill="#444C76"/>
<path d="M26 48C26 36.9543 34.9543 28 46 28H186C197.046 28 206 36.9543 206 48V188C206 199.046 197.046 208 186 208H46C34.9543 208 26 199.046 26 188V48Z" fill="#444C76"/>
<path d="M157.538 48.5581C157.538 21.2154 74.4614 21.6103 74.4614 46.9844C74.4614 67.1248 95.2307 98.9081 116 98.9081C136.769 98.9081 157.538 66.5402 157.538 48.5581Z" fill="white"/>
<path d="M46.5581 76.4619C19.2154 76.4619 19.6103 159.539 44.9844 159.539C65.1248 159.539 96.9081 138.77 96.9082 118C96.9082 97.2311 64.5402 76.4619 46.5581 76.4619Z" fill="white"/>
<path d="M185.442 159.538C212.785 159.538 212.39 76.4612 187.016 76.4612C166.875 76.4612 135.092 97.2304 135.092 118C135.092 138.769 167.46 159.538 185.442 159.538Z" fill="white"/>
<path d="M74.4617 187.442C74.4617 214.785 157.539 214.39 157.539 189.016C157.539 168.875 136.769 137.092 116 137.092C95.2309 137.092 74.4617 169.46 74.4617 187.442Z" fill="white"/>
</svg>
