<svg width="100%" height="100%" viewBox="0 0 252 223" fill="none" xmlns="http://www.w3.org/2000/svg">
<path d="M37.1105 205.093C-24.8892 178.859 0.808157 68.1216 41.5494 5.68782C41.7357 5.40235 41.9784 5.15941 42.3036 5.05712C45.8994 3.92602 56.1313 8.54071 72.4779 35.4571C72.9599 36.2508 73.8995 36.6595 74.804 36.4492C108.092 28.709 157.976 33.1587 180.426 36.5901C181.293 36.7225 182.128 36.3152 182.579 35.5631C187.392 27.529 198.722 11.4662 211.855 1.11776C212.681 0.466123 213.823 0.510781 214.457 1.35094C230.351 22.3976 284.887 178.631 223.536 201.336C160.608 224.625 99.2524 231.387 37.1105 205.093Z" fill="#FFE0B1"/>
<ellipse cx="52.7026" cy="165.276" rx="52.7026" ry="52.5879" fill="url(#paint0_radial_7_730)"/>
<ellipse cx="199.011" cy="165.276" rx="52.7026" ry="52.5879" fill="url(#paint1_radial_7_730)"/>
<path d="M214.744 180.301C217.366 181.804 223.396 184.959 226.543 185.56" stroke="#5A2305" stroke-width="4.22339" stroke-linecap="round"/>
<path d="M214.744 147.246C219.149 147.246 224.445 144.241 226.543 142.739" stroke="#5A2305" stroke-width="4.22339" stroke-linecap="round"/>
<path d="M214.744 166.027L228.903 164.525" stroke="#5A2305" stroke-width="4.22339" stroke-linecap="round"/>
<path d="M31.4642 141.987C28.8422 140.484 22.8116 137.329 19.6651 136.728" stroke="#5A2305" stroke-width="4.22339" stroke-linecap="round"/>
<path d="M31.4642 175.042C27.0592 175.042 21.7628 178.047 19.6651 179.55" stroke="#5A2305" stroke-width="4.22339" stroke-linecap="round"/>
<path d="M31.4642 156.261L17.3053 157.763" stroke="#5A2305" stroke-width="4.22339" stroke-linecap="round"/>
<path d="M125.857 157.763C125.857 166.027 121.924 175.042 110.911 178.047" stroke="#5A2305" stroke-width="4.22339" stroke-linecap="round"/>
<path d="M125.857 157.763C125.857 166.027 129.79 175.042 140.803 178.047" stroke="#5A2305" stroke-width="4.22339" stroke-linecap="round"/>
<path d="M42.7922 16.8334C38.941 22.6001 33.1858 33.214 31.7816 43.0747C31.535 44.806 33.5538 45.9188 35.0952 45.0926C39.3111 42.8328 46.5094 39.7495 56.5878 37.2093C57.5356 36.9705 58.225 36.1186 58.0921 35.1503C57.1235 28.092 50.3395 20.5276 45.7315 16.4429C44.8323 15.6458 43.4595 15.8341 42.7922 16.8334Z" fill="#B86539"/>
<path d="M210.495 16.8334C214.346 22.6001 220.101 33.214 221.506 43.0747C221.752 44.806 219.733 45.9188 218.192 45.0926C213.976 42.8328 206.778 39.7495 196.699 37.2093C195.752 36.9705 195.062 36.1186 195.195 35.1503C196.164 28.092 202.948 20.5276 207.556 16.4429C208.455 15.6458 209.828 15.8341 210.495 16.8334Z" fill="#B86539"/>
<rect x="55.0624" y="120.201" width="22.025" height="27.0452" rx="11.0125" fill="#5A2305"/>
<rect x="173.053" y="120.201" width="22.025" height="27.0452" rx="11.0125" fill="#5A2305"/>
<path d="M115.631 148.749C114.845 152.505 117.991 157.764 127.43 157.764C131.363 157.012 136.083 154.007 136.87 149.5C137.656 144.992 132.936 142.739 125.857 142.739C118.778 142.739 116.418 144.992 115.631 148.749Z" fill="#5A2305"/>
<defs>
<radialGradient id="paint0_radial_7_730" cx="0" cy="0" r="1" gradientUnits="userSpaceOnUse" gradientTransform="translate(52.7026 165.276) rotate(90) scale(52.5879 52.7026)">
<stop stop-color="#FF9AA0" stop-opacity="0.54"/>
<stop offset="0.338542" stop-color="#F19D9C" stop-opacity="0.402188"/>
<stop offset="0.671875" stop-color="#F4BFB2" stop-opacity="0.222262"/>
<stop offset="1" stop-color="#F9E8CE" stop-opacity="0"/>
</radialGradient>
<radialGradient id="paint1_radial_7_730" cx="0" cy="0" r="1" gradientUnits="userSpaceOnUse" gradientTransform="translate(199.011 165.276) rotate(90) scale(52.5879 52.7026)">
<stop stop-color="#FF9AA0" stop-opacity="0.54"/>
<stop offset="0.338542" stop-color="#F19D9C" stop-opacity="0.402188"/>
<stop offset="0.671875" stop-color="#F4BFB2" stop-opacity="0.222262"/>
<stop offset="1" stop-color="#F9E8CE" stop-opacity="0"/>
</radialGradient>
</defs>
</svg>
